<svg xmlns="http://www.w3.org/2000/svg" viewBox="0 0 802.76 234.83"><defs><style>.cls-1,.cls-2,.cls-3,.cls-4,.cls-5{fill:#005baa;}.cls-2{fill-rule:evenodd;}.cls-3{font-size:114.47px;letter-spacing:0.1em;}.cls-3,.cls-4,.cls-5{font-family:PalatinoBold, Palatino;}.cls-4{font-size:76.94px;}.cls-5{font-size:34.35px;}</style></defs><g id="Layer_2" data-name="Layer 2"><g id="Layer_1-2" data-name="Layer 1"><path class="cls-1" d="M214.37,117a7,7,0,0,0,4.68-1.94,4.27,4.27,0,0,0,1.06-2.08,11.38,11.38,0,0,0,.07-3.18,12.46,12.46,0,0,0-.33-2q-1.28,0-6.12.43l-4.93.45a19.91,19.91,0,0,0-2.18.28,12.78,12.78,0,0,0,0,2,8.07,8.07,0,0,0,1,3.49,5.1,5.1,0,0,0,2.61,2,9.46,9.46,0,0,0,4.16.49m.85,3.41a8.66,8.66,0,0,1-6.57-1.94,8.37,8.37,0,0,1-2.16-2.79,11.26,11.26,0,0,1-1.07-4.28l-.28-4c-.08-1.08-.18-2-.3-2.68l.1-.13.32,0,.14,0a4.14,4.14,0,0,0,.74.85,6.32,6.32,0,0,0,1.51,0l2.53-.19,5.73-.5a25.16,25.16,0,0,0,3.48-.45.51.51,0,0,0,.39-.42c0-.12,0-.56,0-1.33l.11-.12.76-.07.12.1c0,.8.06,1.57.13,2.29.15,1.75.31,3.33.48,4.73.09.7.16,1.4.22,2.11a12.05,12.05,0,0,1-.27,4.56,5.76,5.76,0,0,1-2.07,2.89A7.72,7.72,0,0,1,215.22,120.37Zm4.25-22.24-.14-.09c-.26-.72-.42-1.14-.48-1.24a.49.49,0,0,0-.51-.25,25.11,25.11,0,0,0-3.42.82l-4.42,1.27q-4.89,1.39-6.33,2l-.14-.11q-.14-1.29-.24-2,2.44-3.85,9.1-13.4l-7.12,2a23.22,23.22,0,0,0-3.33,1.11.48.48,0,0,0-.3.48,11.69,11.69,0,0,0,.26,1.31l-.08.14-.74.21-.13-.08c-.2-.85-.4-1.63-.6-2.35s-.51-1.67-.79-2.5l.07-.13.74-.22.14.08a10.24,10.24,0,0,0,.47,1.24.48.48,0,0,0,.51.26,25.72,25.72,0,0,0,3.42-.83l5.76-1.65a23.22,23.22,0,0,0,3.33-1.11.49.49,0,0,0,.3-.48,11.69,11.69,0,0,0-.26-1.31l.08-.14.74-.21.13.08c.16.7.32,1.36.5,2,.28,1,.54,1.79.77,2.42q-4.11,5.42-8.57,12.43l6.37-1.83A27.21,27.21,0,0,0,217.9,95a.51.51,0,0,0,.3-.49c0-.11-.09-.55-.26-1.3l.08-.14.73-.21.14.08c.19.82.38,1.6.6,2.34.26.93.53,1.77.79,2.5l-.07.14ZM201.78,74.88,205.89,70l-6.34.74c.27.56.64,1.27,1.11,2.15S201.48,74.36,201.78,74.88Zm-2,9.2-.15,0c-.74-1.51-1.2-2.41-1.36-2.72C197.61,80.11,197,79,196.38,78l.05-.15.63-.33.17,0,.51.84c.21.36.44.47.68.34a4,4,0,0,0,.79-.78L200.89,76c-.47-.93-1-1.87-1.48-2.83-.27-.52-.69-1.29-1.25-2.31l-1.45.21a9,9,0,0,0-2,.42c-.26.14-.32.37-.2.71a10.54,10.54,0,0,0,.46,1.07l-.05.15-.64.34-.15,0c-.62-1.25-1-2.06-1.21-2.41s-.52-.94-1.14-2l0-.15.65-.34.16,0q.6,1,1.08,1c.32,0,2-.11,5.11-.45l7.92-.86,2.76-.34.76,1.42L200.59,81.6c-.36.45-.53.78-.5,1a3.45,3.45,0,0,0,.38,1l-.06.14ZM192.1,62c1.76-1.43,1.89-3.06.39-4.91-.19-.24-.41-.5-.67-.79l-4.08,3.31q-.66.53-1.26,1.08a7.18,7.18,0,0,0,.76,1.06,3.06,3.06,0,0,0,2.31,1.28A4,4,0,0,0,192.1,62Zm5.54-5.11c1.29-1.05,1.4-2.26.3-3.6a10.18,10.18,0,0,0-1-1.08c-.64.47-1.22.92-1.74,1.34l-2.43,2c.1.15.31.42.64.83a2.69,2.69,0,0,0,2.72,1.26A3.62,3.62,0,0,0,197.64,56.92Zm-3.09,7.58a4.83,4.83,0,0,1-5.15.63,7,7,0,0,1-2.81-2.23c-.28-.35-.52-.64-.69-.88l-1.66-2.14c-.61-.75-1.1-1.32-1.47-1.7l0-.16.24-.2.15,0a3.54,3.54,0,0,0,1.09.28,5.44,5.44,0,0,0,1.24-.85l2-1.57L192,52a25.89,25.89,0,0,0,2.64-2.33.5.5,0,0,0,.09-.56c-.06-.11-.3-.48-.75-1.1v-.16l.6-.49.15,0q.58.82,2.13,2.73c.66.81,1.26,1.53,1.82,2.16s.81.92,1.1,1.28q2,2.46,1.49,4.13a3,3,0,0,1-1,1.5,3.38,3.38,0,0,1-2.88.72,4.45,4.45,0,0,1-1.37-.49,11.42,11.42,0,0,1-1.4-1Q197.34,62.25,194.55,64.5ZM177.13,52.26l-.16,0c-.55-.52-1.43-1.29-2.64-2.3s-2.11-1.74-2.71-2.19v-.16l.49-.58h.16a11.41,11.41,0,0,0,1.09.76.47.47,0,0,0,.56-.07,24.31,24.31,0,0,0,2.37-2.59l3.86-4.6a24.73,24.73,0,0,0,2.14-2.78.5.5,0,0,0,0-.57,11.94,11.94,0,0,0-.94-.94v-.16l.49-.59H182c.52.5,1.4,1.26,2.62,2.29s2.13,1.75,2.71,2.18l0,.16-.49.59h-.16c-.62-.46-1-.71-1.09-.77A.49.49,0,0,0,185,40a24.31,24.31,0,0,0-2.37,2.59l-3.86,4.6A26.08,26.08,0,0,0,176.63,50a.5.5,0,0,0,0,.57,10.28,10.28,0,0,0,.94.94v.16Zm-3.85-11.1-.16.06c-.46-.13-.78-.13-.94,0a11,11,0,0,0-1.21,2c-.32.57-.6,1.14-.85,1.71a19.65,19.65,0,0,1-6.7-2.08,9.35,9.35,0,0,1-4.63-5.17,8,8,0,0,1,.8-6.63A7.51,7.51,0,0,1,167,26.79a11.6,11.6,0,0,1,5,1.62,18,18,0,0,1,3,2.13,11.41,11.41,0,0,1,1.75,1.83v.22a18.9,18.9,0,0,0-2.11,2.8l-.16,0-.6-.33,0-.16c.07-.12.2-.39.39-.8a6.25,6.25,0,0,0,.36-.88,3.76,3.76,0,0,0-.93-1.84,7.62,7.62,0,0,0-2.2-1.78,5.56,5.56,0,0,0-6.41.15,8.09,8.09,0,0,0-2.3,2.69,8.07,8.07,0,0,0-1.06,5.38A5.59,5.59,0,0,0,164.62,42a6.8,6.8,0,0,0,2.82.83c.3-.44.67-1.06,1.12-1.86a6.84,6.84,0,0,0,.59-1.23c0-.13-.07-.28-.25-.44s-.69-.5-1.6-1.08l-.05-.16.35-.62.16,0c1,.56,1.94,1.12,3,1.7l2.74,1.49,0,.15ZM153.09,28a9.08,9.08,0,0,0,.36-5.37,4.36,4.36,0,0,0-3.08-3,4.3,4.3,0,0,0-5.18,1.5,9.84,9.84,0,0,0-1.61,3.13,10.16,10.16,0,0,0-.48,5.66,4.42,4.42,0,0,0,3.15,3.23,4.27,4.27,0,0,0,5.11-1.69A11.16,11.16,0,0,0,153.09,28Zm3.51.52A8.71,8.71,0,0,1,152.25,34a8.81,8.81,0,0,1-6.86.2,8.27,8.27,0,0,1-5.12-4,8.14,8.14,0,0,1-.22-6.45q1.68-5.19,6.28-5.89a10.23,10.23,0,0,1,4.73.53,8.65,8.65,0,0,1,5.21,3.87A7.61,7.61,0,0,1,156.6,28.52Zm-20.22-1.46a25.49,25.49,0,0,0-.71,3.69l-.13.1-8.16-1.08c-1.37-.16-2.33-.26-2.9-.28l-.1-.13,0-.32.07-.12a3.68,3.68,0,0,0,1-.56,5.44,5.44,0,0,0,.31-1.48l.34-2.51.7-5.7a26.14,26.14,0,0,0,.29-3.51.52.52,0,0,0-.33-.46c-.11,0-.55-.13-1.31-.27l-.09-.13.09-.76.13-.09c.76.14,1.89.3,3.38.48s2.72.31,3.53.37l.1.11-.09.78-.13.09c-.77,0-1.21-.07-1.33-.06a.5.5,0,0,0-.43.38,24,24,0,0,0-.58,3.46l-.82,6.73c-.12,1-.22,1.94-.3,2.86l1.53.19a17.79,17.79,0,0,0,4.06.24.43.43,0,0,0,.2-.11,2.17,2.17,0,0,0,.29-.64l.44-1.37.13-.11.69.09Zm-18-5.66A9.15,9.15,0,0,0,117,16.21a4.4,4.4,0,0,0-3.9-1.86,4.33,4.33,0,0,0-4.42,3.1,10.37,10.37,0,0,0-.5,3.49,10.14,10.14,0,0,0,1.39,5.5,4.43,4.43,0,0,0,4,2,4.27,4.27,0,0,0,4.29-3.26A11.67,11.67,0,0,0,118.36,21.4Zm3.48-.65a8.79,8.79,0,0,1-2.32,6.61,8.89,8.89,0,0,1-6.43,2.42A8.28,8.28,0,0,1,107,27.71a8.12,8.12,0,0,1-2.32-6q-.09-5.44,4-7.62a10.33,10.33,0,0,1,4.64-1,8.64,8.64,0,0,1,6.19,2A7.66,7.66,0,0,1,121.84,20.75ZM99.36,15.14l-.09.14c-.73.25-1.15.4-1.25.45a.52.52,0,0,0-.27.51,27.48,27.48,0,0,0,.77,3.43l1.19,4.44Q101,29,101.57,30.48l-.12.14-2,.2q-3.81-2.51-13.23-9.33l1.92,7.16a24.22,24.22,0,0,0,1,3.35.48.48,0,0,0,.48.3A11.21,11.21,0,0,0,91,32.07l.14.08.2.74-.08.13c-.86.18-1.64.37-2.36.57s-1.68.47-2.51.74l-.14-.07-.2-.75.08-.13a13,13,0,0,0,1.25-.46.48.48,0,0,0,.27-.5A25.68,25.68,0,0,0,86.91,29L85.36,23.2a27.27,27.27,0,0,0-1-3.36.51.51,0,0,0-.49-.3c-.11,0-.55.08-1.3.23l-.14-.08-.2-.74.08-.13c.71-.14,1.37-.29,2-.46,1-.27,1.8-.51,2.43-.73Q92,21.83,99,26.41L97.25,20a25.77,25.77,0,0,0-1-3.35.49.49,0,0,0-.48-.31c-.12,0-.55.08-1.31.23l-.14-.07-.2-.75.09-.13c.82-.17,1.61-.36,2.35-.55.94-.26,1.78-.51,2.51-.75l.14.07ZM85.17,34.67l0,.15c-1.12.52-1.9.89-2.32,1.11s-1,.51-1.76,1a7.62,7.62,0,0,0-1.76-.9l-4.75-1.89a19.9,19.9,0,0,0-3.14-1l1.22,2.4a25.48,25.48,0,0,0,1.72,3.06.5.5,0,0,0,.54.2c.11,0,.52-.19,1.23-.5l.15,0,.35.67,0,.16c-.7.3-1.74.8-3.14,1.52S70.94,42,70.34,42.35l-.15,0-.35-.69,0-.15a12.14,12.14,0,0,0,1.13-.7.48.48,0,0,0,.15-.55A23.27,23.27,0,0,0,69.71,37L67,31.69a24.64,24.64,0,0,0-1.73-3.07.49.49,0,0,0-.53-.2c-.11,0-.52.2-1.23.5l-.15,0L63,28.19l0-.14c.67-.29,1.71-.8,3.14-1.53s2.49-1.29,3.08-1.64l.14,0,.35.7-.05.14a13.06,13.06,0,0,0-1.13.7.51.51,0,0,0-.16.55,25.13,25.13,0,0,0,1.47,3.2l1.27,2.5c.67-1.81,1.12-3.14,1.38-4l.68-2.21c.23-.77.5-1.79.82-3.07l-.36-.69.06-.16q.81-.33,1.56-.72c.58-.3,1.26-.67,2-1.11l.16.05.32.63,0,.15a3.64,3.64,0,0,0-1.55,1.26,35.45,35.45,0,0,0-1.72,4.28l-1,3c.49.25,1.25.58,2.29,1l3.6,1.47a26.47,26.47,0,0,0,4.49,1.62,2.37,2.37,0,0,0,.86-.29l.15.06ZM66.82,40.15a26.76,26.76,0,0,0,2.11,3.1l0,.16-6.53,5c-1.08.84-1.84,1.46-2.25,1.84l-.17,0L59.77,50l0-.14a3.57,3.57,0,0,0,.3-1.09,5.93,5.93,0,0,0-.83-1.26l-1.53-2L54.13,41a23.23,23.23,0,0,0-2.28-2.67.5.5,0,0,0-.56-.1,12.71,12.71,0,0,0-1.11.73l-.16,0-.47-.61,0-.15C50.2,37.71,51.14,37,52.4,36s3.23-2.55,6.34-5h.16l.65,1.08c.21.35.39.64.55.87l.59.88,0,.17-.51.4-.16,0c-.64-.8-1-1.23-1.23-1.27s-.5.15-1.11.55-1.13.78-1.57,1.12-1,.83-1.52,1.29c.42.67,1.07,1.56,1.93,2.67l1.44,1.85c.5-.34.89-.62,1.18-.85l1.16-.92c.55-.44.82-.72.83-.86a3.6,3.6,0,0,0-.76-1.35l0-.16.56-.44.16,0c.49.68,1,1.3,1.39,1.85s1,1.25,1.58,2L64,40l-.6.47-.16,0c-.53-.69-.9-1.06-1.09-1.11s-.55.09-1.07.42-.78.54-1.19.86-.83.68-1.18,1l2.13,2.72c.61.78,1.21,1.52,1.81,2.23l1.22-1a17,17,0,0,0,3-2.7.35.35,0,0,0,.07-.21,2.18,2.18,0,0,0-.25-.67l-.65-1.27v-.17l.55-.43Zm-19.92.39A12.57,12.57,0,0,0,48,41.85l1.35,1.33v.16l-.49.51-.16,0a14.25,14.25,0,0,0-1.31-1.09.8.8,0,0,0-.89.15c-.12.09-.62.6-1.51,1.51L44,45.53c.18.2.93.93,2.25,2.21l4.63,4.47a25,25,0,0,0,2.63,2.33.48.48,0,0,0,.57,0,13.1,13.1,0,0,0,1-.87h.16l.55.52v.17c-.55.5-1.38,1.32-2.47,2.46s-1.92,2-2.38,2.55h-.14l-.56-.54v-.16c.5-.58.78-.93.84-1a.5.5,0,0,0,0-.57,25.91,25.91,0,0,0-2.43-2.54L44,50.08c-1.34-1.3-2.1-2-2.29-2.17l-1.12,1.17A11.74,11.74,0,0,0,39,50.87a.47.47,0,0,0,0,.29,2,2,0,0,0,.41.63,11.72,11.72,0,0,0,.81.93v.16l-.5.52h-.17L38.1,52.08A13,13,0,0,0,36.79,51v-.15c.37-.27,1.52-1.41,3.47-3.42l3.19-3.31c1.79-1.85,2.89-3,3.3-3.58ZM30.81,59.3a11.32,11.32,0,0,0,1.43,1l1.62,1,0,.15-.36.62-.15.06a13.08,13.08,0,0,0-1.53-.74.79.79,0,0,0-.83.36c-.1.12-.46.73-1.1,1.83l-.75,1.31c.22.15,1.12.68,2.71,1.6l5.58,3.22a26.32,26.32,0,0,0,3.11,1.62.49.49,0,0,0,.56-.12c.08-.08.33-.45.76-1.09l.15,0,.66.37,0,.16c-.41.63-1,1.62-1.8,3S39.59,76,39.27,76.62l-.14,0-.66-.38,0-.16c.34-.69.53-1.09.56-1.2a.5.5,0,0,0-.17-.55,26.39,26.39,0,0,0-3-1.88l-5.57-3.22c-1.62-.93-2.53-1.44-2.75-1.54l-.81,1.4a12.84,12.84,0,0,0-1.08,2.11.47.47,0,0,0,0,.3,2.24,2.24,0,0,0,.54.51,10.85,10.85,0,0,0,1,.71l0,.16-.35.62-.17,0-1.69-.94a12.58,12.58,0,0,0-1.52-.73l-.05-.14q.44-.53,2.53-4.17l2.3-4q1.93-3.36,2.33-4.28ZM22.5,75.78l.07.15c-.29.84-.23,1.39.19,1.65a9.44,9.44,0,0,0,1.58.69c.61.24,1.51.56,2.68,1l3.3,1.14c2.12.73,3.49,1.66,4.11,2.81a6.5,6.5,0,0,1,.17,5.36,9.15,9.15,0,0,1-2.45,4.06,3.92,3.92,0,0,1-2.84,1,27.53,27.53,0,0,1-4.95-1.42l-2.77-1a23.69,23.69,0,0,0-3.37-1,.49.49,0,0,0-.52.22c-.06.1-.24.51-.54,1.22L17,91.7l-.72-.25-.07-.14c.28-.67.68-1.76,1.2-3.28s.89-2.65,1.07-3.31l.14-.07.72.25.07.14c-.21.75-.31,1.17-.33,1.29a.5.5,0,0,0,.28.5,24.5,24.5,0,0,0,3.27,1.28l2.21.76a20.29,20.29,0,0,0,5.08,1.35q2.05-.1,3-3A4.49,4.49,0,0,0,33.06,84a2.55,2.55,0,0,0-.65-1,5.36,5.36,0,0,0-1.29-.78,14.74,14.74,0,0,0-1.74-.71l-2.23-.77c-1.87-.64-3.15-1.08-3.84-1.3a4.72,4.72,0,0,0-1.3-.3.65.65,0,0,0-.46.26,5.77,5.77,0,0,0-.62,1.26l-.14.07-.72-.24L20,80.36c.26-.61.5-1.24.73-1.89.17-.5.47-1.45.91-2.86l.14-.08ZM15.42,95.2a11.39,11.39,0,0,0,1.7.39l1.87.28.1.13-.1.71-.12.11a13.37,13.37,0,0,0-1.7-.12.8.8,0,0,0-.63.65c-.05.14-.16.85-.33,2.1L16,101c.26.06,1.29.21,3.11.47l6.38.89a25.49,25.49,0,0,0,3.49.34.47.47,0,0,0,.47-.32,10.66,10.66,0,0,0,.3-1.29l.13-.1.75.1.1.13c-.15.74-.34,1.89-.56,3.45s-.36,2.76-.41,3.46l-.12.09-.76-.11-.1-.13a11.06,11.06,0,0,0,.07-1.32.49.49,0,0,0-.36-.44,25.84,25.84,0,0,0-3.46-.64l-6.37-.89c-1.85-.26-2.89-.4-3.12-.41l-.23,1.61a11.56,11.56,0,0,0-.21,2.36.53.53,0,0,0,.14.27,2.53,2.53,0,0,0,.69.27,11.25,11.25,0,0,0,1.21.27l.1.13-.1.71L17,110l-1.92-.24a11.63,11.63,0,0,0-1.69-.1l-.1-.12c.14-.43.4-2,.79-4.81l.64-4.54c.36-2.56.55-4.18.56-4.85ZM29.12,113l.12.11c-.08.75-.14,1.92-.2,3.49s-.07,2.74-.05,3.49l-.12.1-.75,0L28,120c0-.78-.05-1.22-.07-1.33a.49.49,0,0,0-.41-.4A24.37,24.37,0,0,0,24,118l-6-.21a28,28,0,0,0-3.52,0,.5.5,0,0,0-.43.38,12.83,12.83,0,0,0-.16,1.31l-.12.12-.76,0-.11-.12c.08-.72.14-1.88.2-3.48s.07-2.76,0-3.48l.11-.11.77,0,.1.12c0,.77.05,1.22.07,1.33a.5.5,0,0,0,.41.4,24.37,24.37,0,0,0,3.5.27l6,.21a25.51,25.51,0,0,0,3.52,0,.49.49,0,0,0,.43-.37,12.79,12.79,0,0,0,.16-1.32l.12-.11ZM13.19,123.22a11.46,11.46,0,0,0,1.74-.07l1.88-.2.12.09.09.71-.09.14a15.41,15.41,0,0,0-1.67.33.79.79,0,0,0-.44.79c0,.15.07.86.23,2.12l.18,1.5c.27,0,1.31-.14,3.13-.36l6.39-.78a26.15,26.15,0,0,0,3.47-.58.5.5,0,0,0,.37-.43c0-.12,0-.56-.05-1.33l.09-.13.76-.09.13.1c0,.75.16,1.9.35,3.47s.37,2.76.5,3.45l-.09.12-.77.09-.12-.1a10,10,0,0,0-.28-1.29.48.48,0,0,0-.46-.34,25.3,25.3,0,0,0-3.5.28l-6.39.79c-1.85.23-2.89.37-3.13.42l.2,1.61a13.29,13.29,0,0,0,.41,2.33.48.48,0,0,0,.2.22,1.91,1.91,0,0,0,.75.08c.4,0,.81,0,1.23,0l.13.09.09.72-.1.13-1.92.26a13.24,13.24,0,0,0-1.66.34l-.13-.08a47.74,47.74,0,0,0-.47-4.86l-.56-4.55c-.32-2.57-.56-4.17-.71-4.82Zm13.14,15.25a5.41,5.41,0,0,1,3.47.18,5.48,5.48,0,0,1,2.43,1.87,8.66,8.66,0,0,1,1.4,3,10.71,10.71,0,0,1,.16,4.79l-.21.19a16.84,16.84,0,0,0-3.66.65l-.13-.07-.19-.7.08-.13.25-.07a13.46,13.46,0,0,0,1.59-.57,3.23,3.23,0,0,0,.82-1.73,5,5,0,0,0-.07-2.35A3.2,3.2,0,0,0,30,141a3.34,3.34,0,0,0-1.72,0,2.14,2.14,0,0,0-1.69,1.71,6.58,6.58,0,0,0,0,2,10.1,10.1,0,0,1-.1,4.14,3.81,3.81,0,0,1-2.81,2.24,4.71,4.71,0,0,1-4-.54,6.84,6.84,0,0,1-2.59-4.07,9.32,9.32,0,0,1-.28-4.36L17,142a21.08,21.08,0,0,0,3.21-.53l.14.09.19.69-.08.14a14.64,14.64,0,0,0-1.68.57,2.7,2.7,0,0,0-.56,1.41,5.09,5.09,0,0,0,.13,2,3.45,3.45,0,0,0,1.4,2.11,2.54,2.54,0,0,0,2.11.29,2.11,2.11,0,0,0,1.6-1.4,9.1,9.1,0,0,0,0-3c0-.16-.06-.61-.12-1.34a6.1,6.1,0,0,1,0-1.28,3.4,3.4,0,0,1,.83-2A4.32,4.32,0,0,1,26.33,138.47ZM21.6,156.88l.15.07c.39.66.63,1,.7,1.12a.51.51,0,0,0,.55.16,25.13,25.13,0,0,0,3.2-1.47l4.1-2.08q4.53-2.31,5.84-3.15l.16.09q.39,1.24.6,1.86-1.65,4.26-6.37,14.89l6.6-3.36a26.53,26.53,0,0,0,3.06-1.73.49.49,0,0,0,.2-.53,13.23,13.23,0,0,0-.5-1.24l0-.15.68-.35.15.05c.35.8.7,1.53,1,2.2s.81,1.54,1.25,2.3l-.05.14-.68.35-.15,0a10,10,0,0,0-.71-1.13.5.5,0,0,0-.55-.16,26.19,26.19,0,0,0-3.19,1.46l-5.34,2.73a23.87,23.87,0,0,0-3.06,1.72.52.52,0,0,0-.21.54q0,.17.51,1.23l-.05.15-.69.35-.14-.05c-.29-.66-.57-1.28-.87-1.86-.46-.91-.87-1.65-1.21-2.23q3-6.1,6-13.83l-5.9,3a24.79,24.79,0,0,0-3.06,1.73.49.49,0,0,0-.2.54,11.83,11.83,0,0,0,.5,1.23l-.05.15-.69.35-.14-.06c-.34-.77-.69-1.5-1-2.18-.44-.87-.86-1.64-1.25-2.31l0-.15Zm22.8,10,.15,0q.6,1,2,2.91c.9,1.28,1.59,2.22,2.06,2.81l0,.15-.63.44-.15,0c-.48-.6-.77-.94-.86-1a.49.49,0,0,0-.56-.08,27.25,27.25,0,0,0-3,1.9l-4.91,3.44a25,25,0,0,0-2.79,2.13.51.51,0,0,0-.13.56c0,.11.27.49.67,1.15l0,.16-.63.44-.15,0c-.37-.62-1-1.58-1.94-2.89s-1.6-2.25-2.05-2.81l0-.16.63-.44.15,0a10.24,10.24,0,0,0,.86,1,.49.49,0,0,0,.56.08,25.7,25.7,0,0,0,3-1.9l4.91-3.44a26.56,26.56,0,0,0,2.8-2.13.52.52,0,0,0,.12-.56,11.88,11.88,0,0,0-.67-1.15l0-.16Z"/><path class="cls-1" d="M191.63,176l0-.16c.16-.46.17-.77,0-.94a11.83,11.83,0,0,0-1.89-1.32,18,18,0,0,0-1.66-.93,19.74,19.74,0,0,1,2.43-6.58,9.43,9.43,0,0,1,5.41-4.36,7.94,7.94,0,0,1,6.58,1.15,7.54,7.54,0,0,1,3.83,7.62,11.85,11.85,0,0,1-1.89,4.9,17.79,17.79,0,0,1-2.28,2.91,11.31,11.31,0,0,1-1.92,1.64l-.22,0a18.91,18.91,0,0,0-2.68-2.25l0-.16.36-.58.15,0c.12.07.38.22.78.43a7.34,7.34,0,0,0,.86.4,3.82,3.82,0,0,0,1.89-.83,7.52,7.52,0,0,0,1.89-2.1,5.57,5.57,0,0,0,.19-6.41,8,8,0,0,0-2.57-2.44,8.08,8.08,0,0,0-5.32-1.34,5.59,5.59,0,0,0-4.23,2.71,6.86,6.86,0,0,0-1,2.77c.43.32,1,.73,1.8,1.22a6.33,6.33,0,0,0,1.2.65c.13,0,.28-.05.45-.23a19.12,19.12,0,0,0,1.16-1.53l.16,0,.61.37,0,.17c-.6.91-1.22,1.88-1.85,2.9l-1.62,2.66-.16,0Zm19.15-13.58-.06-.16c.23-.74.35-1.16.37-1.28a.48.48,0,0,0-.26-.51,26.67,26.67,0,0,0-3.22-1.4l-4.29-1.64c-3.17-1.22-5.25-2-6.24-2.24L197,155c.44-.74.77-1.31,1-1.7q4.28-1.6,15.33-5.22l-6.92-2.65a23.77,23.77,0,0,0-3.33-1.12.48.48,0,0,0-.53.21,11.84,11.84,0,0,0-.58,1.19l-.15.07-.71-.28-.06-.14c.35-.79.67-1.54.93-2.24s.61-1.63.88-2.47l.13-.06.72.27.07.15a12.24,12.24,0,0,0-.37,1.28.51.51,0,0,0,.25.51,26.7,26.7,0,0,0,3.23,1.39l5.59,2.15a24.22,24.22,0,0,0,3.33,1.12.49.49,0,0,0,.54-.21c.06-.09.26-.49.58-1.2l.14-.06.72.28.06.14c-.3.65-.57,1.28-.8,1.89-.37,1-.65,1.75-.85,2.39q-6.54,1.86-14.32,4.77l6.19,2.38a27.54,27.54,0,0,0,3.33,1.12.5.5,0,0,0,.53-.21,12.67,12.67,0,0,0,.58-1.2l.15-.06.72.27.05.15q-.51,1.15-.93,2.22c-.35.91-.64,1.74-.87,2.48l-.14.07ZM218,141.84l-.09-.14c.16-.87,0-1.41-.44-1.6a10.56,10.56,0,0,0-1.67-.44c-.65-.13-1.58-.31-2.8-.52l-3.43-.61c-2.21-.39-3.72-1.1-4.5-2.14a6.45,6.45,0,0,1-1-5.26,9.13,9.13,0,0,1,1.78-4.39,3.89,3.89,0,0,1,2.66-1.4,26.33,26.33,0,0,1,5.11.63l2.88.5a24.84,24.84,0,0,0,3.48.47.48.48,0,0,0,.48-.31,9.9,9.9,0,0,0,.34-1.28l.14-.1.75.14.09.13c-.18.7-.4,1.85-.68,3.42s-.46,2.76-.53,3.44l-.13.09-.75-.13-.09-.13c.08-.77.12-1.21.12-1.33a.52.52,0,0,0-.35-.45,25.41,25.41,0,0,0-3.44-.75l-2.29-.41a20.38,20.38,0,0,0-5.24-.53c-1.34.28-2.18,1.42-2.53,3.41a4.52,4.52,0,0,0,.42,3.21,2.77,2.77,0,0,0,.8.88,5.65,5.65,0,0,0,1.4.57,18.71,18.71,0,0,0,1.83.43l2.32.41c1.95.34,3.28.57,4,.68a5.08,5.08,0,0,0,1.33.09.65.65,0,0,0,.42-.33,6.86,6.86,0,0,0,.4-1.34l.14-.09.75.13.09.13c-.16.64-.3,1.3-.43,2-.09.51-.24,1.5-.45,3l-.13.1Z"/><path class="cls-2" d="M57,187.08a4.14,4.14,0,1,1-4.15,4.14A4.14,4.14,0,0,1,57,187.08"/><path class="cls-2" d="M177.8,187.08a4.14,4.14,0,1,1-4.14,4.14,4.14,4.14,0,0,1,4.14-4.14"/><path class="cls-1" d="M150,91.1c-2.75-1.1-6.65-4.07-9.47-7.25-1.86-2.1-4.1-2-6.66-2,.36,3.9.15,7.81-1.37,10.77a55.59,55.59,0,0,1,11.81,4.63C147.92,95.88,152,92.74,150,91.1Z"/><path class="cls-1" d="M127.29,79.39h4c-.31-6.8-1.11-8.68-7.26-11.62C127.24,71.29,127.31,74.13,127.29,79.39Z"/><path class="cls-1" d="M122.27,79.39h2.56c-.15-8.73-1.76-11.21-5.72-13.69,0,6.43-.21,10.34,1,12.48A3.37,3.37,0,0,0,122.27,79.39Z"/><polygon class="cls-1" points="117.79 82.26 119.6 80.4 117.79 78.59 115.96 80.4 117.79 82.26"/><path class="cls-1" d="M149.49,81.27l2.82-2.22c.94-.94,0-2-1-1.49l-3,2.36A.9.9,0,1,0,149.49,81.27Z"/><path class="cls-1" d="M141.56,78.64A3.59,3.59,0,0,0,142,82c1.85,1.57,3.73,4.58,6.17,5.81a6.21,6.21,0,0,0,4.48-1.18c-1-.24-2-.14-1.78-1.59-1.31.75-2.58-.89-2.13-2.1-.77.36-3-.55-2.19-2.34a1.65,1.65,0,0,1-2.19-2c.43-1.91,3.08-2.27,2.36-4.58C144.78,75.2,143.39,76.91,141.56,78.64Z"/><path class="cls-1" d="M143.32,73.7,140.59,70a10.46,10.46,0,0,1,10.85-1,11.32,11.32,0,0,0-8.27-10c.34,3.83-.46,6.84-3.74,9.54l-3.06-3.47-1.2,1,7,8.71Z"/><path class="cls-1" d="M147.39,79.05l2.82-2.19c.94-.94,0-2-1-1.5l-3,2.37A.89.89,0,1,0,147.39,79.05Z"/><path class="cls-1" d="M99.25,141.29c.72-2.94,4.08-10.92,8.61-14.27,3.18-2.77,6.92-4.58,10.65-6.61l-2.51-1.1a33.6,33.6,0,0,0-6.38,3c-4.82,2.65-12.54,10.22-12.75,17.93A3.18,3.18,0,0,0,99.25,141.29Z"/><path class="cls-1" d="M105.78,104.34l1.67,1.11,3.18-3.43a3.22,3.22,0,0,0-1.83-2.91Z"/><path class="cls-1" d="M113.55,79.39a3.45,3.45,0,0,0,2.14-1.21c1.21-2.14,1-6.05,1-12.48-3.93,2.48-5.54,5-5.69,13.69Z"/><path class="cls-1" d="M95.42,76.83l0-2.91c-.19-1.38-2-1.52-2,0v2.77C93.76,78.33,95.13,78.28,95.42,76.83Z"/><path class="cls-1" d="M111.76,67.77c-6.17,2.94-6.94,4.82-7.25,11.62h4C108.48,74.13,108.56,71.29,111.76,67.77Z"/><path class="cls-1" d="M112.46,99.69c1.62,4.62-.63,10.34,1.57,14.82,5.23,6.77,16.51,5.28,17.86,9.74l5.18,0c0-5.66-5.83-7.3-8.44-7.33s-6.82-1.56-7.95-4.41c-.79-2-1.25-9.52,1.4-13.28,2.75-3,6.53-4.72,8.36-8.29a19,19,0,0,0,.78-8.94H124c-4.55,0-6.19,2.14-6.19,3.4,0-1.26-1.47-3.4-5.91-3.4h-7.49a16.39,16.39,0,0,0,1.06,9C108.29,97,110.39,95.8,112.46,99.69Zm10.25-13.91a30.1,30.1,0,0,1,4.84-.17,3.33,3.33,0,0,1-1.25,2.53c-1.28.63-3.42.63-5.28.51C120.9,87.66,121.62,86,122.71,85.78Zm-9.72,0c1.09.24,1.79,1.88,1.69,2.87-1.88.12-4,.12-5.28-.51a3.43,3.43,0,0,1-1.28-2.53A30.49,30.49,0,0,1,113,85.78Z"/><path class="cls-1" d="M97.9,122.42h-.05a2.25,2.25,0,0,0-1.3.89c-1.54,1.06-.41,3.23-1.85,4.43a2.17,2.17,0,0,1,0,3.35c1.3.94.91,2.53-.34,3.4.86.29,1.44,1.33.72,2.82C99.85,131.94,97.4,127.19,97.9,122.42Z"/><path class="cls-1" d="M137.41,96.67l-2.24-.6a23,23,0,0,1-4.27,11.5,11,11,0,0,0,1.81,2.91C134.08,108.17,138,101.73,137.41,96.67Z"/><path class="cls-1" d="M151.46,83.44l2.82-2.19c.94-1,0-2-1-1.52l-3,2.38A.89.89,0,1,0,151.46,83.44Z"/><path class="cls-1" d="M130.61,131.31a1.72,1.72,0,0,0,1.71,1.71,1.72,1.72,0,1,0-1.71-1.71Z"/><path class="cls-1" d="M135.17,131.31A1.73,1.73,0,0,0,136.9,133a1.72,1.72,0,0,0,1.71-1.71,1.72,1.72,0,1,0-3.44,0Z"/><path class="cls-1" d="M139.6,131.31a1.72,1.72,0,0,0,1.71,1.71,1.72,1.72,0,1,0-1.71-1.71Z"/><path class="cls-1" d="M117.69,169.35c-2.17-4.37-10.85-3.71-19.33-3.67-7.42,0-15.07,1.4-18.46-1.3.48,4.73,3.37,6.25,7.83,6.39,6.22.19,15.69-.07,20.78.43,5.3.53,7.08,1.35,9.18,3.88,2.08-2.53,3.86-3.35,9.16-3.88,5.09-.5,14.56-.24,20.78-.43,4.46-.14,7.38-1.66,7.86-6.39-3.4,2.7-11.07,1.33-18.49,1.3C128.52,165.64,119.84,165,117.69,169.35Z"/><path class="cls-1" d="M130.4,115.43c3.47.7,7.3,3.08,8.19,7.42l.41-14c2.1,2.51,1.62,9.55,1.62,15.38l8.5,0c-.41,1.13,0,3.42-1.32,4.34,2,1.52.91,4.75-.68,5.4a3.27,3.27,0,0,1-3.83-.46c-.67.75-2.27,1.54-4.36,0-1.5,1.33-2.92,1.28-4.2-.19-.48.79-1.51.72-2,.82,1.21,3.32,6.34,6.43,10.37,4.87,9-3.57,11-10.78,10.44-20.71a24.45,24.45,0,0,0-14.2-21.28C139.39,102.89,133.67,113.5,130.4,115.43Z"/><path class="cls-1" d="M132.16,126.61c0,.48.12,1.23.6,1.49a2.78,2.78,0,0,1,2,1.16c.92-1.59,3-1.47,4.29-.22.92-1.2,3.84-1.08,4.39,0,.6-1.15,1.52-1.2,2.68-1.08.24-.34.5-1,.31-1.35Z"/><path class="cls-1" d="M144,131.31a1.73,1.73,0,1,0,1.73-1.73A1.73,1.73,0,0,0,144,131.31Z"/><path class="cls-1" d="M130.71,95.13l-4.05,3.76c.53,2.41,2.43,5.33,3.35,7.38,1.71-2.27,3.16-7.57,3.16-10.56l-2.41-.58Z"/><path class="cls-1" d="M132,111.45a7.16,7.16,0,0,1-3.11-.89,8.91,8.91,0,0,1-3.72,3.47,7.31,7.31,0,0,0,3,1C129.07,114.34,131.58,112.36,132,111.45Z"/><path class="cls-1" d="M153.54,85.46a4.13,4.13,0,0,0,2.29-2c.91-1.47.24-2.2-.75-1.5l-2.77,2.25C151.63,84.84,152.45,85.9,153.54,85.46Z"/><path class="cls-1" d="M123.67,113.38a12.94,12.94,0,0,0,4-3.35,18.15,18.15,0,0,1-5.4-6C122.15,105.08,120.51,111.76,123.67,113.38Z"/><path class="cls-1" d="M123.12,102.34c.86,2.5,4.84,7.78,8.14,8a65.11,65.11,0,0,1-5.9-10.1C124.27,100.17,122.9,101.64,123.12,102.34Z"/><path class="cls-1" d="M92.36,76.83V73.92c-.17-1.38-2-1.52-2,0v2.77C90.69,78.33,92,78.28,92.36,76.83Z"/><path class="cls-1" d="M117.41,38a79.46,79.46,0,1,0,79.46,79.45A79.6,79.6,0,0,0,117.41,38ZM102.29,64.64a1.73,1.73,0,0,1-1.71,1.73,1.72,1.72,0,1,1,0-3.44A1.72,1.72,0,0,1,102.29,64.64Zm.24,4.38a1.74,1.74,0,0,1-1.74,1.72A1.72,1.72,0,0,1,99.08,69a1.74,1.74,0,0,1,1.71-1.73A1.77,1.77,0,0,1,102.53,69ZM98.31,58.76a1.72,1.72,0,1,1,0,3.44,1.72,1.72,0,0,1-1.71-1.71A1.73,1.73,0,0,1,98.31,58.76Zm-4-1.93a1.72,1.72,0,1,1-1.72,1.71A1.73,1.73,0,0,1,94.29,56.83Zm-5-.19a1.72,1.72,0,1,1,0,3.44,1.72,1.72,0,0,1-1.71-1.71A1.73,1.73,0,0,1,89.3,56.64Zm-4.08,2.62A1.72,1.72,0,0,1,86.93,61a1.72,1.72,0,1,1-1.71-1.71Zm-2.55,3.91A1.72,1.72,0,1,1,81,64.88,1.72,1.72,0,0,1,82.67,63.17Zm2,6.29a1.72,1.72,0,0,1-1.71,1.71,1.73,1.73,0,0,1-1.73-1.71,1.72,1.72,0,1,1,3.44,0ZM148.4,173.59c-6.68.92-27.79-3.3-30.71,5-2.94-8.34-24.2-3.4-30.73-5-9.26-2.34-8.32-7.86-9.59-13.4,5.71,6,14.24,2.89,22.85,2.89,6.34,0,14.56-1,17.47,2.6,2.89-3.56,11.11-2.6,17.45-2.6,8.61,0,15.94,3.13,22.35-2.89C156.91,165.23,157.44,172.34,148.4,173.59Zm11-25.12a18,18,0,0,1-1.52,6.39c-2.58,6.15-9.09,6.65-14.22,5.71-5.5-1-9.88-4-15.19-1.76-2,1.14-4.31,3.28-7,1.72-2.37-1.64-2.92-2.68-3.88-5.21a9.37,9.37,0,0,1-3.79,4.94c-2.48,1.9-5.66.1-7.16-1.45-5.73-4.24-11.86,1.72-17.38,2.05-10.22,1.28-13.86-5.28-13.81-11.93,0-5.81,2.84-11.79,8.73-11.83a18.27,18.27,0,0,1-4.49-9.24c-1.9-11.61-.65-18.87,9.84-29.48-2.27-1-5.11-3-7.21-7.71C86,88.45,86.48,87.3,86.55,87a13.11,13.11,0,0,1-4-12.53,5.32,5.32,0,0,1,1.73-2.9c.63-.29,1.84-.62,2.27.32a2.09,2.09,0,0,1,3.4-.08,2,2,0,0,1,3.32.25c.41-1.28,3.23-1.59,3.28,1.47.68-1.67,3.06-2.15,4.37-2a4.2,4.2,0,0,0-.58,2.22c.09,2,0,3.78.07,5.59h1.47c.19-5.71,1.83-10.51,9.47-14,2-.9,4.17-1.26,6.44-2.7,2.17,1.35,4.36,1.66,6.34,2.7,8.36,4.45,9.28,7.85,9.49,13.9l5.12.51c-.29-1.66.38-2.24,2.31-3.93l-8.22-10.08,3.64-3.06L139.63,66a8.67,8.67,0,0,0,1.56-6.92,4.8,4.8,0,0,0-1-2.92A13.11,13.11,0,0,1,149.94,61,12.69,12.69,0,0,1,152.81,72c-2.65-2.41-6.12-2.58-9.42-1.42l1.44,2.07,2.63-1.76c.6,1,1.57,1.59,1.35,3,1.88-.75,3.95,1,3,2.41,2.15-.7,2.68,1.11,2.46,1.83a1.79,1.79,0,0,1,2,2.19c1.38-.29,1.76.94,1.54,2.29-1.32,3.26-2.91,6-7.4,7.14l2.46,1.2c-1.4,3.76-3.9,7-6.7,8,5.67,5.36,9.11,12,9.35,23,.08,4-1.06,11.38-4.82,14.29A12.45,12.45,0,0,1,159.37,148.47Z"/><path class="cls-1" d="M121.77,152a3,3,0,0,1,0-4.08c-.91-1.15-1.23-2.72-.09-3.85a2.13,2.13,0,0,1-.51-2.44c-2.22,2.27-2.15,7.09-2.15,8,0,1.44.15,5.71,2.22,8.31a2.58,2.58,0,0,1,.68-2A2.66,2.66,0,0,1,121.77,152Z"/><path class="cls-1" d="M113.84,141.63a2.14,2.14,0,0,1-.51,2.41,2.83,2.83,0,0,1-.12,3.85,3,3,0,0,1,0,4.08,2.63,2.63,0,0,1-.09,3.93,2.71,2.71,0,0,1,.87,2c2.07-2.6,2-6.85,2-8.29C116,148.71,116.05,143.92,113.84,141.63Z"/><path class="cls-1" d="M121.81,139.17c1.79-1.28,5.31-.39,6.8,1.66,2.24,2.34,6,1.28,8,0-3.07-1.61-7-5.3-7.62-9.54a4.52,4.52,0,0,1,1.35-3l-.36-3.18c-.51-2.15-6.75-3-8.61-4-6.39,3.13-14.22,6.92-17.91,13.23-1,1.57-1.42,5.67-1.59,7.23,1.64.37,3.16.63,5-.93,2.53-2.17,5-2.51,6.7-1.52,2.34.43,3.47,3.49,4.08,5.64C118.44,141.77,118.87,141.24,121.81,139.17Zm-4-5a1.72,1.72,0,0,1-1.71-1.71,1.72,1.72,0,1,1,1.71,1.71Z"/><path class="cls-1" d="M111.11,140.11a1.71,1.71,0,0,0,0,3.42,1.71,1.71,0,1,0,0-3.42Z"/><path class="cls-1" d="M111.11,144a1.7,1.7,0,0,0-1.69,1.71,1.68,1.68,0,0,0,1.69,1.69,1.7,1.7,0,1,0,0-3.4Z"/><path class="cls-1" d="M111.11,152.3a1.72,1.72,0,0,0,0,3.43,1.72,1.72,0,1,0,0-3.43Z"/><path class="cls-1" d="M111.11,148.23a1.68,1.68,0,0,0-1.69,1.69,1.72,1.72,0,0,0,1.69,1.73,1.76,1.76,0,0,0,1.74-1.73A1.72,1.72,0,0,0,111.11,148.23Z"/><path class="cls-1" d="M149.1,137.92a11.24,11.24,0,0,1-8.17,3.47c-5.5,3.88-11.35,4-13.5,1.32a1.68,1.68,0,0,1-1,1.21,2.64,2.64,0,0,1-.08,3.85,2.89,2.89,0,0,1-.07,4.2,2.71,2.71,0,0,1-.17,4.05c.44.21,1,.84.85,1.35,7.81-4.94,14.75,2.55,22.22,1.39C160.14,156.33,159.15,139.17,149.1,137.92Z"/><path class="cls-1" d="M111.14,156.4a1.52,1.52,0,1,0,0,3,1.52,1.52,0,0,0,0-3Z"/><path class="cls-1" d="M200.38,34.46A117,117,0,0,0,117.42,0h0A117.64,117.64,0,0,0,0,117.41H0v0a117.64,117.64,0,0,0,117.41,117.4h0a117.64,117.64,0,0,0,117.4-117.41h0A117.08,117.08,0,0,0,200.38,34.46Zm30.27,82.95h0A113.46,113.46,0,0,1,117.43,230.65h0A113.46,113.46,0,0,1,4.18,117.43v0h0A113.46,113.46,0,0,1,117.4,4.18h0A113.46,113.46,0,0,1,230.65,117.4Z"/><path class="cls-1" d="M124.15,140.16a1.71,1.71,0,1,0,1.71,1.71A1.72,1.72,0,0,0,124.15,140.16Z"/><path class="cls-1" d="M124.13,156.33a1.51,1.51,0,1,0,0,3,1.51,1.51,0,1,0,0-3Z"/><path class="cls-1" d="M124.15,152.21a1.71,1.71,0,1,0,1.71,1.71A1.72,1.72,0,0,0,124.15,152.21Z"/><path class="cls-1" d="M124.15,144.16a1.71,1.71,0,1,0,1.71,1.71A1.72,1.72,0,0,0,124.15,144.16Z"/><path class="cls-1" d="M124.15,148.16a1.71,1.71,0,1,0,1.71,1.71A1.72,1.72,0,0,0,124.15,148.16Z"/><path class="cls-1" d="M108.92,151.82a2.74,2.74,0,0,1-.07-4,2.48,2.48,0,0,1,0-3.88,1.59,1.59,0,0,1-1-1.23c-3.91,2.51-9.74,1.21-13.11-.82l0,4.44a9.92,9.92,0,0,1-6.36-6.87c-10.51-4.07-14,14-6.17,18.39,8.72,3.64,17.69-7.81,26-.19a1.29,1.29,0,0,1,1-1.47A2.67,2.67,0,0,1,108.92,151.82Z"/><path class="cls-1" d="M89.22,76.83l0-2.91c-.19-1.38-2-1.52-2.08,0v2.77C87.56,78.33,88.91,78.28,89.22,76.83Z"/><path class="cls-1" d="M103.37,92.62C101.28,89,102,85.15,101.66,82a12.12,12.12,0,0,0-7.25,1.76c-3.14,1.69-6.2,5.6-9.36,7.07-1.83,1,4.3,6.34,6.68,6.34C94.75,94.72,98.55,93.92,103.37,92.62Z"/><path class="cls-1" d="M85.83,131.19c-1-.26-1.74-2.89.09-3.52-1.08-.58-1.54-2-.29-3.49.65-1,1.62-.66,2.53-.94v-3.52l6.32,0c.14-2.58-.36-7.74,2-11.09l-.19,11.84a3.4,3.4,0,0,1,3.52-1l-.15,10.41c3.93-4.7,9.31-9.3,14.73-11.57-2.51-2-3.42-4.31-3.49-14.32l-3.21,3.23-4.12-2.43,3.88-7.31a10.92,10.92,0,0,1-2.85-2.6,29.61,29.61,0,0,0-11.74,4.07C86.21,103.57,82,110.8,81.34,117.74c0,6,.36,11.76,3.88,16.2C84.93,133.12,84.28,131.36,85.83,131.19Zm16.58-18.9a1.74,1.74,0,0,1,1.71,1.74,1.72,1.72,0,0,1-1.71,1.71,1.74,1.74,0,0,1-1.74-1.71A1.77,1.77,0,0,1,102.41,112.29Z"/><path class="cls-1" d="M86,77.1V73.87c-.39-1.33-1.33-1-1.57.26A7.22,7.22,0,0,0,84.16,77C84.5,78,85.71,78.21,86,77.1Z"/><path class="cls-1" d="M88.16,85.51c2.1-1.93,6.9-6.12,10.1-6.12L97.9,74l-.05,0c-1.3.94-1.37,2-1.66,3.61A2.07,2.07,0,0,1,94.67,79a1.84,1.84,0,0,1-1.88-1.28A1.52,1.52,0,0,1,91.25,79c-1,0-1.18-.22-1.42-1.11-.2.94-1,.94-1.67,1.16-1.15-.1-1.2-.48-1.42-1.23A1.93,1.93,0,0,1,85.3,79c-.39-.1-.63.31-1.21-.53C84.26,80.4,85.44,84.16,88.16,85.51Z"/><path class="cls-1" d="M92.41,135.09H88c-2.27-.09-1.57,2.46.17,2.27H92.5C94.07,137.63,94.6,134.83,92.41,135.09Z"/><path class="cls-1" d="M92.57,128.37H88.12c-2.27-.07-1.57,2.46.16,2.29h4.39A1.17,1.17,0,1,0,92.57,128.37Z"/><rect class="cls-1" x="90.02" y="121.14" width="2.89" height="1.83"/><path class="cls-1" d="M92.57,125H88.12c-2.27-.07-1.57,2.46.16,2.29h4.39C94.24,127.5,94.77,124.73,92.57,125Z"/><path class="cls-1" d="M92.57,131.7H88.12c-2.27-.08-1.57,2.46.16,2.29h4.39A1.17,1.17,0,1,0,92.57,131.7Z"/><path class="cls-1" d="M92.94,143.65v-4l-2.32,0A5.07,5.07,0,0,0,92.94,143.65Z"/><path class="cls-1" d="M146.91,211.87a23.6,23.6,0,0,0-2.5-6.27,2,2,0,0,0-2.23-1,1.78,1.78,0,0,0-1.33,1.67,13.09,13.09,0,0,0,.71,4.49,29.18,29.18,0,0,0,2.15,5.73,5.63,5.63,0,0,0,.86,1.26,1.76,1.76,0,0,0,1.82.55q1.67-.48,1.26-3.12a25.78,25.78,0,0,0-.74-3.26m2.3-2.7q1.29,4.52.72,6.78a4.66,4.66,0,0,1-3.49,3.58,4.42,4.42,0,0,1-4.55-1c-1-.95-1.91-2.77-2.67-5.44a16.08,16.08,0,0,1-.79-5.13,5.26,5.26,0,0,1,1.07-3.09,4.91,4.91,0,0,1,2.61-1.7,4.46,4.46,0,0,1,4.17.5Q148,205.06,149.21,209.17ZM132.5,219.43a15,15,0,0,0,.19,2.65l-.12.18c-2.2.11-4,.22-5.38.34s-3.18.32-5.17.57l-.17-.13-.09-1.08,2.22-2.7a25.3,25.3,0,0,0,3.19-4.53,6.9,6.9,0,0,0,.56-1.61,5.31,5.31,0,0,0,.07-1.5c-.16-1.9-1.12-2.77-2.86-2.62a2.78,2.78,0,0,0-2.22,1.31c-.06.35-.16,1-.31,1.83l-.12.13-.68.06-.13-.11.1-4a5.63,5.63,0,0,1,4-1.87,5.14,5.14,0,0,1,3.81.93,4,4,0,0,1,1.47,2.94,5.26,5.26,0,0,1,0,1.44,7.36,7.36,0,0,1-1.28,2.83c-.57.81-1.45,1.89-2.63,3.24-.43.5-1.08,1.24-2,2.22l0,.16,2.11-.19c.61-.05,1.2-.11,1.74-.18l2.06-.24c.52-.06,1-.12,1.37-.19Zm-21.79-7.56a6.55,6.55,0,0,0-.35-3.32,2,2,0,0,0-1.67-1.21,1.88,1.88,0,0,0-2,1.32,6.07,6.07,0,0,0-.42,1.87,4.93,4.93,0,0,0,.43,2.89,2,2,0,0,0,1.66,1.09,1.84,1.84,0,0,0,2-1.09A4.39,4.39,0,0,0,110.71,211.87Zm3,1.51a10.76,10.76,0,0,1-1.59,5.13,9.47,9.47,0,0,1-3.47,3.2,8,8,0,0,1-4.56.93l-.87-.86.32-.44a2.52,2.52,0,0,0,.87.21,4.54,4.54,0,0,0,3.38-1.09,6.09,6.09,0,0,0,1.17-1.4,12.51,12.51,0,0,0,1.42-4.18,12.46,12.46,0,0,1-2.12,1.48,4.92,4.92,0,0,1-1.72.14,3.26,3.26,0,0,1-2.49-1.4,5.08,5.08,0,0,1-.77-3.51,5.82,5.82,0,0,1,2.89-4.94,4.94,4.94,0,0,1,2.92-.54,4.66,4.66,0,0,1,4.29,3.37A9.34,9.34,0,0,1,113.72,213.38Zm-20.45,6.9-.17.11c-1-.38-2.35-.79-3.9-1.24s-3.12-.85-4.81-1.26l-.09-.16.2-.71.17-.07c.41.06.8.14,1.17.21a6.24,6.24,0,0,0,1.33.17.87.87,0,0,0,.46-.33,24.09,24.09,0,0,0,1.47-4.32l.82-2.86c.25-.86.54-1.95.89-3.28l.23-.87c.11-.39.08-.6-.08-.65a3.68,3.68,0,0,0-.76.07c-1.18.19-2.21.35-3.07.51l-.11-.12a15.41,15.41,0,0,0,.17-1.54l0-.09q3.43,0,7.8-.36l.19.24c-.17.44-.4,1.1-.71,2-.12.32-.4,1.23-.85,2.69l-1.33,4.52A39.08,39.08,0,0,0,91,218.18a.5.5,0,0,0,.25.41,13.66,13.66,0,0,0,2.1.83l.12.16Z"/><text class="cls-3" transform="translate(249.35 97.95) scale(0.94 1)">BOSSCHA</text><text class="cls-4" transform="translate(253.32 160.49)">OBSERVATORY</text><text class="cls-5" transform="translate(256.5 202.67)">INSTITUT TEKNOLOGI BANDUNG</text></g></g></svg>